<svg width="64" height="49" viewBox="0 0 64 49" fill="none" xmlns="http://www.w3.org/2000/svg">
<path d="M39.6427 2.0029H23.9185C22.0177 2.00214 20.1353 2.37484 18.379 3.09971C16.6226 3.82458 15.0268 4.88741 13.6825 6.22747C12.3383 7.56753 11.2721 9.15856 10.5447 10.9096C9.81739 12.6607 9.44322 14.5376 9.4436 16.4329V32.1115C9.44284 34.007 9.81672 35.8842 10.5439 37.6356C11.271 39.387 12.3372 40.9784 13.6815 42.3187C15.0258 43.6591 16.6218 44.7222 18.3783 45.4472C20.1348 46.1723 22.0174 46.5451 23.9185 46.5443H39.6427C41.5438 46.5451 43.4264 46.1723 45.1829 45.4472C46.9395 44.7222 48.5355 43.6591 49.8797 42.3187C51.224 40.9784 52.2902 39.387 53.0174 37.6356C53.7445 35.8842 54.1184 34.007 54.1176 32.1115V16.4329C54.1184 14.5373 53.7445 12.6602 53.0174 10.9088C52.2902 9.15733 51.224 7.56596 49.8797 6.22559C48.5355 4.88523 46.9395 3.82214 45.1829 3.09709C43.4264 2.37204 41.5438 1.99924 39.6427 2V2.0029Z" stroke="white" stroke-width="4"/>
<path d="M53.8795 34.6666H58.5834C59.3733 34.6666 60.1307 34.3538 60.6892 33.7969C61.2477 33.24 61.5615 32.4847 61.5615 31.6972V16.85C61.5615 16.0625 61.2477 15.3072 60.6892 14.7503C60.1307 14.1935 59.3733 13.8806 58.5834 13.8806H53.8766M9.68489 34.6666H4.97808C4.58699 34.6666 4.19973 34.5898 3.83842 34.4406C3.4771 34.2914 3.1488 34.0726 2.87226 33.7969C2.59572 33.5212 2.37635 33.1938 2.22669 32.8335C2.07703 32.4733 2 32.0871 2 31.6972V16.85C2 16.0625 2.31376 15.3072 2.87226 14.7503C3.43076 14.1935 4.18824 13.8806 4.97808 13.8806H9.68489" stroke="white" stroke-width="4"/>
<path d="M4.94873 13.8808V2.00305M58.5831 13.8808L58.5541 2.00305M37.6785 21.3029H43.6318M22.8462 17.8873V23.8262M25.8243 33.1806C27.408 34.748 29.549 35.6276 31.7805 35.6276C34.0119 35.6276 36.1529 34.748 37.7366 33.1806" stroke="white" stroke-width="4" stroke-linecap="round" stroke-linejoin="round"/>
</svg>
