<svg width="44" height="44" viewBox="0 0 44 44" fill="none" xmlns="http://www.w3.org/2000/svg">
<path d="M36.8333 6.30512C34.8466 4.29901 32.4805 2.70838 29.8729 1.6259C27.2653 0.543427 24.4683 -0.00923687 21.645 0.000116773C9.815 0.000116773 0.173334 9.64178 0.173334 21.4718C0.173334 25.2635 1.17 28.9468 3.03333 32.1968L0 43.3335L11.375 40.3435C14.5167 42.0551 18.0483 42.9651 21.645 42.9651C33.475 42.9651 43.1167 33.3235 43.1167 21.4935C43.1167 15.7518 40.885 10.3568 36.8333 6.30512ZM21.645 39.3251C18.4383 39.3251 15.2967 38.4585 12.545 36.8335L11.895 36.4434L5.135 38.2201L6.93333 31.6335L6.5 30.9618C4.71802 28.1171 3.772 24.8285 3.77 21.4718C3.77 11.6351 11.7867 3.61845 21.6233 3.61845C26.39 3.61845 30.875 5.48178 34.2333 8.86178C35.8965 10.5168 37.2145 12.4856 38.1109 14.654C39.0072 16.8224 39.4641 19.1471 39.455 21.4935C39.4983 31.3301 31.4817 39.3251 21.645 39.3251ZM31.4383 25.9785C30.8967 25.7185 28.2533 24.4185 27.7767 24.2235C27.2783 24.0501 26.9317 23.9635 26.5633 24.4835C26.195 25.0251 25.1767 26.2385 24.8733 26.5851C24.57 26.9535 24.245 26.9968 23.7033 26.7151C23.1617 26.4551 21.4283 25.8701 19.3917 24.0501C17.7883 22.6201 16.7267 20.8651 16.4017 20.3235C16.0983 19.7818 16.3583 19.5001 16.64 19.2185C16.8783 18.9801 17.1817 18.5901 17.4417 18.2868C17.7017 17.9835 17.81 17.7451 17.9833 17.3985C18.1567 17.0301 18.07 16.7268 17.94 16.4668C17.81 16.2068 16.7267 13.5635 16.2933 12.4801C15.86 11.4401 15.405 11.5701 15.08 11.5485H14.04C13.6717 11.5485 13.1083 11.6785 12.61 12.2201C12.1333 12.7618 10.7467 14.0618 10.7467 16.7051C10.7467 19.3485 12.675 21.9051 12.935 22.2518C13.195 22.6201 16.7267 28.0368 22.1 30.3551C23.3783 30.9185 24.375 31.2435 25.155 31.4818C26.4333 31.8935 27.6033 31.8285 28.535 31.6985C29.575 31.5468 31.72 30.3985 32.1533 29.1418C32.6083 27.8851 32.6083 26.8235 32.4567 26.5851C32.305 26.3468 31.98 26.2385 31.4383 25.9785Z" fill="white"/>
</svg>
